<svg width="45" height="45" viewBox="0 0 45 45" fill="none" xmlns="http://www.w3.org/2000/svg">
<path d="M28.3065 25.4033C28.7069 25.4033 29.0323 25.079 29.0323 24.6775V21.7743C29.0323 18.9522 27.2309 16.5497 24.7203 15.6389C25.1406 15.1353 25.4032 14.496 25.4032 13.7904V12.3388C25.4032 10.7376 24.1012 9.43555 22.5 9.43555C20.8988 9.43555 19.5968 10.7376 19.5968 12.3388V13.7904C19.5968 14.496 19.8594 15.1353 20.2797 15.6389C17.7691 16.5497 15.9677 18.9522 15.9677 21.7743V24.6775C15.9677 25.079 16.2931 25.4033 16.6935 25.4033H18.871V34.8388C18.871 35.2403 19.1963 35.5646 19.5968 35.5646H25.4032C25.8037 35.5646 26.129 35.2403 26.129 34.8388V25.4033H28.3065ZM21.0484 13.7904V12.3388C21.0484 11.5382 21.6994 10.8872 22.5 10.8872C23.3006 10.8872 23.9516 11.5382 23.9516 12.3388V13.7904C23.9516 14.591 23.3006 15.242 22.5 15.242C21.6994 15.242 21.0484 14.591 21.0484 13.7904ZM17.4194 23.9517V21.7743C17.4194 18.9734 19.6985 16.6936 22.5 16.6936C25.3015 16.6936 27.5807 18.9734 27.5807 21.7743V23.9517H26.129V21.0484H24.6774V22.5001H20.3226V21.0484H18.871V23.9517H17.4194ZM23.2258 34.113V25.4033H21.7742V34.113H20.3226V23.9517H24.6774V34.113H23.2258Z" fill="black"/>
<path d="M44.7867 4.56677L40.4332 0.213347C40.3018 0.081157 40.1203 0 39.9194 0H29.7581C29.3576 0 29.0323 0.324274 29.0323 0.725806V18.1452C29.0323 18.5467 29.3576 18.871 29.7581 18.871H37.0161V22.9253L31.9493 27.9921C31.5173 27.7366 31.0211 27.5806 30.4839 27.5806C28.8827 27.5806 27.5806 28.8827 27.5806 30.4839C27.5806 32.085 28.8827 33.3871 30.4839 33.3871C32.085 33.3871 33.3871 32.085 33.3871 30.4839C33.3871 29.9466 33.2312 29.4504 32.9756 29.0184L38.2551 23.739C38.3915 23.6032 38.4677 23.4189 38.4677 23.2258V18.871H44.2742C44.6747 18.871 45 18.5467 45 18.1452V5.08064C45 4.8797 44.9188 4.69825 44.7867 4.56677ZM30.4839 31.9355C29.6833 31.9355 29.0323 31.2844 29.0323 30.4839C29.0323 29.6833 29.6833 29.0323 30.4839 29.0323C31.2845 29.0323 31.9355 29.6833 31.9355 30.4839C31.9355 31.2844 31.2845 31.9355 30.4839 31.9355ZM40.6452 2.47795L42.5221 4.35484H40.6452V2.47795ZM43.5484 17.4194H38.4677V15.9677H37.0161V17.4194H30.4839V1.45161H39.1936V5.08064C39.1936 5.48218 39.5189 5.80645 39.9194 5.80645H43.5484V17.4194Z" fill="black"/>
<path d="M31.9355 2.9032H37.742V4.35481H31.9355V2.9032Z" fill="black"/>
<path d="M31.9355 5.80652H37.742V7.25813H31.9355V5.80652Z" fill="black"/>
<path d="M31.9355 8.70972H42.0968V10.1613H31.9355V8.70972Z" fill="black"/>
<path d="M31.9355 11.6128H42.0968V13.0644H31.9355V11.6128Z" fill="black"/>
<path d="M15.7544 30.6959L11.401 26.3424C11.2695 26.2102 11.088 26.1291 10.8871 26.1291H7.25807V21.349L13.7765 14.8305C14.2085 15.0861 14.7047 15.242 15.2419 15.242C16.8431 15.242 18.1452 13.9399 18.1452 12.3388C18.1452 10.7376 16.8431 9.43555 15.2419 9.43555C13.6408 9.43555 12.3387 10.7376 12.3387 12.3388C12.3387 12.876 12.4947 13.3722 12.7502 13.8042L6.01909 20.5353C5.88265 20.671 5.80645 20.8553 5.80645 21.0484V26.1291H0.725807C0.325337 26.1291 0 26.4534 0 26.8549V44.2742C0 44.6758 0.325337 45.0001 0.725807 45.0001H15.2419C15.6424 45.0001 15.9678 44.6758 15.9678 44.2742V31.2097C15.9678 31.0088 15.8866 30.8273 15.7544 30.6959ZM15.2419 10.8872C16.0425 10.8872 16.6936 11.5382 16.6936 12.3388C16.6936 13.1394 16.0425 13.7904 15.2419 13.7904C14.4414 13.7904 13.7903 13.1394 13.7903 12.3388C13.7903 11.5382 14.4414 10.8872 15.2419 10.8872ZM11.6129 28.607L13.4898 30.4839H11.6129V28.607ZM14.5161 43.5484H1.45161V27.5807H5.80645V29.0323H7.25807V27.5807H10.1613V31.2097C10.1613 31.6113 10.4866 31.9355 10.8871 31.9355H14.5161V43.5484Z" fill="black"/>
<path d="M2.90321 31.9355H8.70967V33.3872H2.90321V31.9355Z" fill="black"/>
<path d="M2.90321 34.8387H13.0645V36.2904H2.90321V34.8387Z" fill="black"/>
<path d="M2.90321 37.7419H13.0645V39.1936H2.90321V37.7419Z" fill="black"/>
<path d="M2.90321 40.6451H13.0645V42.0968H2.90321V40.6451Z" fill="black"/>
</svg>
