<svg width="40" height="40" viewBox="0 0 40 40" fill="none" xmlns="http://www.w3.org/2000/svg">
<path d="M23.6745 4.81077C23.2544 4.7096 22.8331 4.9678 22.732 5.38717C22.6309 5.80662 22.8889 6.22865 23.3084 6.32974C29.6405 7.85622 34.0629 13.4776 34.0629 19.9999C34.0629 27.7539 27.7546 34.0623 20.0005 34.0623C12.2464 34.0623 5.93807 27.7539 5.93807 19.9999C5.93807 13.4778 10.3602 7.85645 16.6921 6.32982C17.1115 6.22865 17.3696 5.80662 17.2685 5.38725C17.1673 4.9678 16.7451 4.70991 16.3259 4.81085C12.9759 5.61858 9.94086 7.55505 7.77986 10.2635C5.55276 13.0549 4.37558 16.4216 4.37558 19.9999C4.37558 28.6155 11.3849 35.6248 20.0005 35.6248C28.6161 35.6248 35.6254 28.6156 35.6254 19.9999C35.6254 16.4216 34.4482 13.0547 32.221 10.2633C30.0599 7.55489 27.0247 5.61842 23.6745 4.81077Z" fill="#261C35"/>
<path d="M39.5292 18.1208L38.6152 16.4156L38.7676 14.3075C38.9142 12.9563 38.3752 11.6375 37.324 10.7775L35.8068 9.53518L35.21 7.73738C34.8758 6.36278 33.8318 5.25794 32.4773 4.8488L30.6045 4.28302L29.1703 2.62522C28.3217 1.62702 27.0373 1.10781 25.7343 1.23585L23.7905 1.42952L21.8798 0.471013C20.7023 -0.156718 19.2984 -0.157265 18.1208 0.470935L16.4156 1.38484L14.3076 1.23234C12.9558 1.08578 11.6375 1.62483 10.7776 2.676L9.53522 4.19318L7.73749 4.78997C6.36281 5.12419 5.25798 6.16817 4.84884 7.52261L4.28314 9.39534L2.62534 10.8296C1.62722 11.6782 1.10769 12.9624 1.23589 14.2657L1.42956 16.2094L0.471052 18.1201C-0.156757 19.2977 -0.157226 20.7015 0.470896 21.8792L1.38487 23.5844L1.23238 25.6925C1.08589 27.0437 1.62487 28.3624 2.67604 29.2225L4.19322 30.4648L4.79001 32.2626C5.12415 33.6372 6.16813 34.7421 7.52273 35.1512L9.39538 35.7169L10.8297 37.3748C11.6783 38.3729 12.9622 38.8924 14.2657 38.7641L16.2094 38.5705L18.1199 39.5288C18.7089 39.8429 19.3545 40 20.0002 40C20.6453 40 21.2905 39.8431 21.8791 39.5291L23.5844 38.6152L25.6924 38.7677C27.0436 38.914 28.3623 38.3752 29.2224 37.3241L30.4648 35.8069L32.2627 35.2102C33.6372 34.876 34.7419 33.832 35.1511 32.4775L35.7169 30.6048L37.3747 29.1705C38.3729 28.3219 38.8924 27.0377 38.7642 25.7344L38.5704 23.7908L39.5289 21.8801C40.1567 20.7025 40.1573 19.2986 39.5292 18.1208V18.1208ZM38.1468 21.151C38.1433 21.1574 38.14 21.1638 38.1368 21.1702L37.0722 23.2924C37.0059 23.4246 36.9785 23.573 36.9931 23.7203L37.2093 25.8882C37.2872 26.6809 36.9708 27.463 36.3576 27.9844L34.5234 29.5712C34.4115 29.668 34.3294 29.7945 34.2867 29.9361L33.6554 32.0255C33.4037 32.8586 32.7201 33.4992 31.8713 33.6971C31.8481 33.7025 31.8251 33.7089 31.8025 33.7164L29.7577 34.3951C29.6173 34.4418 29.493 34.5272 29.3993 34.6417L28.0134 36.3343C27.487 36.9778 26.6783 37.3063 25.8508 37.2132C25.8405 37.212 25.8301 37.2111 25.8199 37.2103L23.4713 37.0405C23.3234 37.0299 23.1762 37.0613 23.0459 37.1311L21.1425 38.1513C20.4247 38.5341 19.5673 38.5325 18.849 38.1468C18.8426 38.1435 18.8362 38.1401 18.8298 38.1369L16.7076 37.0724C16.5985 37.0177 16.4785 36.9894 16.3573 36.9894C16.3315 36.9894 16.3056 36.9906 16.2798 36.9932L14.1118 37.2092C13.3192 37.2875 12.5371 36.9707 12.0157 36.3576L10.4288 34.5234C10.3321 34.4115 10.2055 34.3294 10.0639 34.2867L7.97445 33.6555C7.14125 33.4039 6.50078 32.7202 6.30289 31.8713C6.2975 31.8481 6.29102 31.8252 6.28352 31.8026L5.60485 29.7576C5.55829 29.6172 5.47282 29.493 5.35837 29.3994L3.6658 28.0134C3.02237 27.4869 2.69377 26.6785 2.7869 25.8509C2.78807 25.8406 2.78901 25.8302 2.78979 25.8198L2.95963 23.4712C2.97033 23.3237 2.93885 23.1762 2.86901 23.0458L1.84878 21.1425C1.46597 20.4247 1.46761 19.5674 1.85315 18.849C1.85659 18.8427 1.85987 18.8363 1.86308 18.8299L2.9276 16.7076C2.99393 16.5754 3.02135 16.4271 3.00666 16.2799L2.79065 14.1118C2.71268 13.3191 3.02916 12.537 3.64236 12.0156L5.47657 10.4288C5.58844 10.332 5.67047 10.2055 5.71329 10.0639L6.34453 7.97441C6.59617 7.14129 7.27984 6.50082 8.12874 6.30285C8.15194 6.29746 8.17484 6.29098 8.19749 6.28348L10.2422 5.60473C10.3826 5.55817 10.5069 5.4727 10.6005 5.35825L11.9866 3.6656C12.513 3.02225 13.3217 2.69381 14.1491 2.78678C14.1594 2.78795 14.1697 2.78889 14.18 2.78967L16.5286 2.95951C16.6757 2.96998 16.8236 2.93873 16.954 2.86889L18.8574 1.84874C19.5751 1.46593 20.4325 1.46749 21.1508 1.85311C21.1571 1.85647 21.1635 1.85983 21.17 1.86304L23.2922 2.92756C23.4244 2.99389 23.5728 3.02139 23.72 3.00662L25.888 2.79061C26.6807 2.71248 27.4628 3.02912 27.9842 3.64232L29.571 5.47653C29.6678 5.5884 29.7943 5.67044 29.936 5.71325L32.0254 6.34449C32.8585 6.59613 33.499 7.27988 33.697 8.1287C33.7023 8.15191 33.7088 8.1748 33.7163 8.19745L34.3951 10.2422C34.4417 10.3826 34.5271 10.5068 34.6416 10.6005L36.3342 11.9865C36.9776 12.5129 37.3062 13.3213 37.213 14.149C37.2119 14.1593 37.2109 14.1696 37.2102 14.18L37.0404 16.5287C37.0297 16.6762 37.0612 16.8237 37.1309 16.954L38.1511 18.8574C38.534 19.5754 38.5324 20.4327 38.1468 21.151V21.151Z" fill="#261C35"/>
<path d="M16.61 15.7434C16.4847 15.4794 16.2163 15.2963 15.9046 15.2963H11.7767C11.3452 15.2963 10.9955 15.6461 10.9955 16.0776V27.903C10.9955 28.3344 11.3452 28.6842 11.7767 28.6842H15.9046C16.2284 28.6842 16.5062 28.4873 16.6246 28.2065C17.2201 28.2901 17.8336 28.4595 18.4724 28.6364C19.4327 28.9022 20.4256 29.1772 21.4572 29.1772H25.9673C27.3615 29.1772 28.4912 28.438 28.9894 27.1998C29.2321 26.5966 29.2746 25.9705 29.1328 25.4463C29.3922 25.2131 29.6114 24.9228 29.7772 24.5838C30.1132 23.897 30.1803 23.1245 29.9898 22.474C30.3448 22.131 30.6097 21.6781 30.7481 21.1442C30.8776 20.645 30.8753 20.1524 30.7601 19.7256C31.4648 19.3111 31.9394 18.5579 31.9394 17.7093C31.9394 17.0438 31.6803 16.4305 31.2097 15.9826C30.7578 15.5524 30.1559 15.3154 29.515 15.3154L23.1579 15.3156C22.6749 14.7098 22.5246 13.8876 22.7996 13.2258C23.364 11.8675 23.329 10.7177 22.6864 9.49791C22.2094 8.59252 20.9268 7.69112 19.8487 7.84502C19.1971 7.93815 18.7256 8.39869 18.5873 9.07713C18.5466 9.27673 18.5354 9.49236 18.5226 9.74204C18.4907 10.358 18.4469 11.2016 17.9152 12.2202C17.5548 12.9108 17.4346 13.621 17.3285 14.2476C17.1765 15.1453 17.1029 15.5777 16.61 15.7434ZM12.558 16.8588H15.1234V27.1217H12.558V16.8588ZM18.8691 14.5084C18.9601 13.9708 19.0542 13.4149 19.3004 12.9433C19.9897 11.6227 20.0481 10.496 20.083 9.8229C20.0923 9.64361 20.1011 9.47423 20.1184 9.38908C20.1185 9.38853 20.1186 9.38791 20.1188 9.38736C20.3898 9.39111 21.0568 9.75697 21.304 10.2263C21.732 11.0385 21.7462 11.6891 21.3568 12.6264C21.0057 13.4716 21.0321 14.4523 21.3794 15.3242C20.9993 15.3771 20.7065 15.7025 20.7065 16.0971C20.7065 16.5285 21.0564 16.8783 21.4878 16.8783L29.515 16.8781C29.753 16.8781 29.9723 16.962 30.1323 17.1143C30.244 17.2205 30.3769 17.41 30.3769 17.7094C30.3769 18.1285 29.9928 18.4908 29.538 18.5007L27.5272 18.5445C27.0959 18.5539 26.7538 18.9111 26.7631 19.3425C26.7724 19.7682 27.1202 20.1068 27.5439 20.1068C27.5496 20.1068 27.5554 20.1068 27.5613 20.1067L29.2359 20.0703C29.2905 20.225 29.319 20.5203 29.204 20.8585C29.1061 21.1461 28.8434 21.6286 28.1824 21.6286C27.751 21.6286 27.4012 21.9784 27.4012 22.4099C27.4012 22.8413 27.751 23.1911 28.1824 23.1911C28.3009 23.1911 28.4171 23.1838 28.5309 23.1693C28.5405 23.3904 28.4951 23.6494 28.3737 23.8974C28.2303 24.1905 27.9468 24.54 27.4107 24.54C26.9793 24.54 26.6295 24.8898 26.6295 25.3213C26.6295 25.7527 26.9793 26.1025 27.4107 26.1025C27.4916 26.1025 27.5716 26.0989 27.6505 26.0918C27.6485 26.2417 27.618 26.4291 27.5328 26.6341C27.4103 26.929 27.0124 27.6147 25.9674 27.6147H21.4574C20.6381 27.6147 19.7887 27.3795 18.8895 27.1305C18.174 26.9324 17.4403 26.7294 16.686 26.6388V17.3246C18.4449 17.0058 18.6874 15.5819 18.8691 14.5084Z" fill="#261C35"/>
<path d="M20.0006 5.93762C20.4321 5.93762 20.7819 5.58785 20.7819 5.15637C20.7819 4.72489 20.4321 4.37512 20.0006 4.37512H20.0001C19.5686 4.37512 19.2191 4.72489 19.2191 5.15637C19.2191 5.58785 19.5691 5.93762 20.0006 5.93762Z" fill="#261C35"/>
</svg>
