<svg width="50" height="40" viewBox="0 0 50 40" fill="none" xmlns="http://www.w3.org/2000/svg">
<path d="M31.7749 35.5319C39.3559 35.5319 45.5234 29.3761 45.5234 21.8095C45.5234 14.243 39.3559 8.08704 31.7749 8.08704C24.1939 8.08704 18.0262 14.2429 18.0262 21.8095C18.0262 29.3762 24.1939 35.5319 31.7749 35.5319ZM21.5382 21.0743H19.522C19.6904 18.2487 20.8224 15.6781 22.5941 13.6857L24.0157 15.1046C24.1594 15.2482 24.348 15.32 24.5364 15.32C24.7249 15.32 24.9134 15.2482 25.0572 15.1046C25.3448 14.8175 25.3448 14.352 25.0572 14.0651L23.6356 12.6462C25.6318 10.8779 28.2073 9.74802 31.0383 9.57992V11.5923C31.0383 11.9983 31.3679 12.3274 31.7748 12.3274C32.1816 12.3274 32.5113 11.9983 32.5113 11.5923V9.57992C35.3423 9.74802 37.9178 10.8779 39.9138 12.6462L38.4923 14.0651C38.2046 14.3521 38.2046 14.8176 38.4923 15.1046C38.6361 15.2481 38.8247 15.32 39.0131 15.32C39.2016 15.32 39.3901 15.2482 39.534 15.1046L40.9555 13.6857C42.7271 15.6781 43.8592 18.2486 44.0275 21.0742H42.0113C41.6044 21.0742 41.2747 21.4033 41.2747 21.8093C41.2747 22.2153 41.6044 22.5445 42.0113 22.5445H44.0275C43.8591 25.3701 42.7271 27.9406 40.9554 29.9329L39.5339 28.5141C39.2462 28.2271 38.7799 28.2271 38.4923 28.5141C38.2046 28.8012 38.2046 29.2667 38.4923 29.5537L39.9138 30.9726C37.9177 32.7409 35.3423 33.8707 32.5113 34.0388V32.0265C32.5113 31.6205 32.1816 31.2913 31.7748 31.2913C31.3679 31.2913 31.0383 31.6205 31.0383 32.0265V34.0388C28.2072 33.8707 25.6318 32.7409 23.6356 30.9726L25.0572 29.5538C25.3448 29.2667 25.3448 28.8012 25.0572 28.5142C24.7695 28.2271 24.3032 28.2271 24.0157 28.5142L22.5941 29.933C20.8224 27.9406 19.6904 25.3702 19.522 22.5445H21.5382C21.9449 22.5445 22.2747 22.2153 22.2747 21.8093C22.2747 21.4034 21.9449 21.0743 21.5382 21.0743Z" fill="black"/>
<path d="M40.7054 35.9584C38.0358 37.6406 34.9477 38.5297 31.7749 38.5297C22.5377 38.5297 15.0227 31.029 15.0227 21.8094C15.0227 18.0769 16.2277 14.5465 18.5072 11.5999C18.7557 11.2786 18.6963 10.817 18.3743 10.5688C18.0524 10.3207 17.5899 10.38 17.3412 10.7014C14.8607 13.9076 13.5497 17.7487 13.5497 21.8094C13.5497 31.8397 21.7255 40 31.7749 40C35.2265 40 38.5867 39.0323 41.4918 37.2015C41.8358 36.9848 41.9385 36.5308 41.7214 36.1875C41.5042 35.8442 41.0494 35.7418 40.7054 35.9584Z" fill="black"/>
<path d="M36.2168 4.16628V1.37968C36.2168 0.618875 35.5967 0 34.8345 0H28.7151C27.9528 0 27.3328 0.618875 27.3328 1.37968V4.1655C24.4039 4.89788 21.6865 6.35087 19.4248 8.43196C19.1257 8.70719 19.1068 9.17218 19.3824 9.47073C19.6582 9.76919 20.1242 9.78821 20.4232 9.51298C23.5236 6.66021 27.555 5.08911 31.7748 5.08911C41.012 5.08911 48.527 12.5898 48.527 21.8094C48.527 26.5418 46.5043 31.0731 42.9775 34.2411C42.6752 34.5127 42.6507 34.9775 42.9228 35.2793C43.0681 35.4407 43.2689 35.5226 43.4704 35.5226C43.646 35.5226 43.8221 35.4604 43.963 35.3339C47.7996 31.8874 50 26.9578 50 21.8093C50.0001 13.308 44.1263 6.15092 36.2168 4.16628ZM28.8059 3.86008V1.47025H34.7439V3.86155C33.7773 3.70277 32.7858 3.61886 31.775 3.61886C30.7726 3.61886 29.7802 3.70041 28.8059 3.86008Z" fill="black"/>
<path d="M31.7748 22.3244C32.0512 22.3244 32.2916 22.1723 32.4176 21.9477L34.9583 19.4118C35.2459 19.1247 35.2459 18.6592 34.9583 18.3722C34.6706 18.0851 34.2044 18.0851 33.9165 18.3722L32.5113 19.7747V16.1947C32.5113 15.7887 32.1816 15.4596 31.7747 15.4596C31.3679 15.4596 31.0382 15.7887 31.0382 16.1947V21.589C31.0383 21.9952 31.368 22.3244 31.7748 22.3244Z" fill="black"/>
<path d="M10.8686 21.9754C10.8686 21.5694 10.5389 21.2402 10.1321 21.2402H0.736523C0.329766 21.2402 0 21.5694 0 21.9754C0 22.3813 0.329766 22.7105 0.736523 22.7105H10.1321C10.5389 22.7105 10.8686 22.3814 10.8686 21.9754Z" fill="black"/>
<path d="M3.67415 18.4294H11.1142C11.521 18.4294 11.8507 18.1002 11.8507 17.6942C11.8507 17.2882 11.521 16.9591 11.1142 16.9591H3.67415C3.26739 16.9591 2.93762 17.2882 2.93762 17.6942C2.93762 18.1002 3.26729 18.4294 3.67415 18.4294Z" fill="black"/>
<path d="M12.0961 12.6779H5.99446C5.5877 12.6779 5.25793 13.007 5.25793 13.413C5.25793 13.819 5.5877 14.1481 5.99446 14.1481H12.0961C12.5029 14.1481 12.8326 13.819 12.8326 13.413C12.8326 13.0069 12.5029 12.6779 12.0961 12.6779Z" fill="black"/>
<path d="M11.8506 25.9248C11.8506 25.5188 11.5209 25.1897 11.1141 25.1897H3.67415C3.26739 25.1897 2.93762 25.5188 2.93762 25.9248C2.93762 26.3308 3.26739 26.6599 3.67415 26.6599H11.1142C11.5209 26.6599 11.8506 26.3308 11.8506 25.9248Z" fill="black"/>
<path d="M12.0961 29.4709H5.99446C5.5877 29.4709 5.25793 29.8001 5.25793 30.2061C5.25793 30.6121 5.5877 30.9412 5.99446 30.9412H12.0961C12.5029 30.9412 12.8326 30.6121 12.8326 30.2061C12.8326 29.8001 12.5029 29.4709 12.0961 29.4709Z" fill="black"/>
</svg>
